<mxfile host="app.diagrams.net" agent="Mozilla/5.0 (Windows NT 10.0; Win64; x64; rv:129.0) Gecko/20100101 Firefox/129.0" version="24.7.7">
  <diagram name="Page-1" id="yKV2OQaG-eJWCKwpJ8NS">
    <mxGraphModel dx="2351" dy="1414" grid="0" gridSize="10" guides="1" tooltips="1" connect="1" arrows="1" fold="1" page="0" pageScale="1" pageWidth="827" pageHeight="1169" math="0" shadow="0">
      <root>
        <mxCell id="0" />
        <mxCell id="1" parent="0" />
        <mxCell id="2" value="" style="swimlane;horizontal=0;startSize=20;" vertex="1" parent="1">
          <mxGeometry x="-20" y="-30" width="370" height="950" as="geometry" />
        </mxCell>
        <mxCell id="4" value="" style="ellipse;whiteSpace=wrap;html=1;aspect=fixed;fillColor=#000000" vertex="1" parent="2">
          <mxGeometry x="160" y="10" width="30" height="30" as="geometry" />
        </mxCell>
        <mxCell id="7" value="Saisir données d&#39;identification" style="rounded=0;whiteSpace=wrap;html=1;" vertex="1" parent="2">
          <mxGeometry x="90" y="80" width="170" height="40" as="geometry" />
        </mxCell>
        <mxCell id="15" value="Affichage page annulation de paiement" style="rounded=0;whiteSpace=wrap;html=1;" vertex="1" parent="2">
          <mxGeometry x="80" y="530" width="180" height="60" as="geometry" />
        </mxCell>
        <mxCell id="21" value="" style="ellipse;whiteSpace=wrap;html=1;aspect=fixed;fillColor=#000000" vertex="1" parent="2">
          <mxGeometry x="155" y="900" width="30" height="30" as="geometry" />
        </mxCell>
        <mxCell id="WrO8-fMBIuIMDRd06IfC-53" value="" style="edgeStyle=orthogonalEdgeStyle;rounded=0;orthogonalLoop=1;jettySize=auto;html=1;" edge="1" parent="2" source="WrO8-fMBIuIMDRd06IfC-34" target="5">
          <mxGeometry relative="1" as="geometry" />
        </mxCell>
        <mxCell id="WrO8-fMBIuIMDRd06IfC-34" value="Afficher page d&#39;accueil" style="rounded=0;whiteSpace=wrap;html=1;" vertex="1" parent="2">
          <mxGeometry x="80" y="200" width="180" height="40" as="geometry" />
        </mxCell>
        <mxCell id="6" style="edgeStyle=orthogonalEdgeStyle;rounded=0;orthogonalLoop=1;jettySize=auto;html=1;exitX=0.5;exitY=1;entryX=0.5;entryY=0;entryDx=0;entryDy=0;" edge="1" parent="2" source="4" target="7">
          <mxGeometry relative="1" as="geometry">
            <mxPoint x="230" y="70" as="targetPoint" />
            <Array as="points">
              <mxPoint x="175" y="70" />
              <mxPoint x="175" y="70" />
            </Array>
          </mxGeometry>
        </mxCell>
        <mxCell id="5" value="Sélectionner un abonnement" style="rounded=0;whiteSpace=wrap;html=1;" vertex="1" parent="2">
          <mxGeometry x="80" y="290" width="180" height="40" as="geometry" />
        </mxCell>
        <mxCell id="WrO8-fMBIuIMDRd06IfC-42" value="Confirmer souscription" style="rounded=0;whiteSpace=wrap;html=1;" vertex="1" parent="2">
          <mxGeometry x="80" y="455" width="180" height="40" as="geometry" />
        </mxCell>
        <mxCell id="WrO8-fMBIuIMDRd06IfC-51" value="" style="edgeStyle=orthogonalEdgeStyle;rounded=0;orthogonalLoop=1;jettySize=auto;html=1;" edge="1" parent="2" source="18" target="WrO8-fMBIuIMDRd06IfC-50">
          <mxGeometry relative="1" as="geometry" />
        </mxCell>
        <mxCell id="18" value="Page Succes Paiement" style="rounded=0;whiteSpace=wrap;html=1;" vertex="1" parent="2">
          <mxGeometry x="80" y="660" width="180" height="60" as="geometry" />
        </mxCell>
        <mxCell id="22" style="edgeStyle=orthogonalEdgeStyle;rounded=0;orthogonalLoop=1;jettySize=auto;html=1;entryX=0.5;entryY=0;entryDx=0;entryDy=0;" edge="1" parent="2" target="21">
          <mxGeometry relative="1" as="geometry">
            <mxPoint x="170" y="830" as="sourcePoint" />
            <mxPoint x="169.41" y="810" as="targetPoint" />
          </mxGeometry>
        </mxCell>
        <mxCell id="WrO8-fMBIuIMDRd06IfC-50" value="Retour page d&#39;accueil" style="whiteSpace=wrap;html=1;rounded=0;" vertex="1" parent="2">
          <mxGeometry x="110" y="800" width="120" height="60" as="geometry" />
        </mxCell>
        <mxCell id="WrO8-fMBIuIMDRd06IfC-56" value="Recapitulatif selection abonnement" style="rounded=0;whiteSpace=wrap;html=1;" vertex="1" parent="2">
          <mxGeometry x="80" y="370" width="180" height="40" as="geometry" />
        </mxCell>
        <mxCell id="WrO8-fMBIuIMDRd06IfC-55" style="edgeStyle=orthogonalEdgeStyle;rounded=0;orthogonalLoop=1;jettySize=auto;html=1;exitX=0.5;exitY=1;entryX=0.5;entryY=0;entryDx=0;entryDy=0;exitDx=0;exitDy=0;" edge="1" parent="2" source="5" target="WrO8-fMBIuIMDRd06IfC-56">
          <mxGeometry relative="1" as="geometry">
            <mxPoint x="-120" y="300" as="sourcePoint" />
            <mxPoint x="-120" y="425" as="targetPoint" />
          </mxGeometry>
        </mxCell>
        <mxCell id="WrO8-fMBIuIMDRd06IfC-58" style="edgeStyle=orthogonalEdgeStyle;rounded=0;orthogonalLoop=1;jettySize=auto;html=1;exitX=0.5;exitY=1;entryX=0.5;entryY=0;entryDx=0;entryDy=0;exitDx=0;exitDy=0;" edge="1" parent="2" source="WrO8-fMBIuIMDRd06IfC-56" target="WrO8-fMBIuIMDRd06IfC-42">
          <mxGeometry relative="1" as="geometry">
            <mxPoint x="200" y="430" as="sourcePoint" />
            <mxPoint x="200" y="555" as="targetPoint" />
          </mxGeometry>
        </mxCell>
        <mxCell id="WrO8-fMBIuIMDRd06IfC-59" style="edgeStyle=orthogonalEdgeStyle;rounded=0;orthogonalLoop=1;jettySize=auto;html=1;entryX=0;entryY=0.5;entryDx=0;entryDy=0;exitX=0;exitY=0.5;exitDx=0;exitDy=0;" edge="1" parent="2" source="15" target="WrO8-fMBIuIMDRd06IfC-50">
          <mxGeometry relative="1" as="geometry">
            <mxPoint x="70" y="560" as="sourcePoint" />
            <mxPoint x="50" y="855" as="targetPoint" />
          </mxGeometry>
        </mxCell>
        <mxCell id="3" value="" style="swimlane;horizontal=0;startSize=20;" vertex="1" parent="1">
          <mxGeometry x="350" y="-30" width="400" height="950" as="geometry" />
        </mxCell>
        <mxCell id="WrO8-fMBIuIMDRd06IfC-25" value="" style="edgeStyle=orthogonalEdgeStyle;rounded=0;orthogonalLoop=1;jettySize=auto;html=1;" edge="1" parent="3" source="11" target="13">
          <mxGeometry relative="1" as="geometry" />
        </mxCell>
        <mxCell id="11" value="API Paiement" style="rounded=0;whiteSpace=wrap;html=1;" vertex="1" parent="3">
          <mxGeometry x="142.5" y="445" width="90" height="60" as="geometry" />
        </mxCell>
        <mxCell id="13" value="Paiement validé ?" style="rhombus;whiteSpace=wrap;html=1;" vertex="1" parent="3">
          <mxGeometry x="125" y="530" width="125" height="60" as="geometry" />
        </mxCell>
        <mxCell id="14" style="edgeStyle=orthogonalEdgeStyle;rounded=0;orthogonalLoop=1;jettySize=auto;html=1;exitX=0.5;exitY=1;" edge="1" parent="3" source="11" target="13">
          <mxGeometry relative="1" as="geometry" />
        </mxCell>
        <mxCell id="WrO8-fMBIuIMDRd06IfC-36" value="Identifiants valides?" style="rhombus;whiteSpace=wrap;html=1;" vertex="1" parent="3">
          <mxGeometry x="190" y="130" width="150" height="60" as="geometry" />
        </mxCell>
        <mxCell id="WrO8-fMBIuIMDRd06IfC-39" value="Afficher erreur" style="rounded=0;whiteSpace=wrap;html=1;" vertex="1" parent="3">
          <mxGeometry x="35" y="140" width="90" height="40" as="geometry" />
        </mxCell>
        <mxCell id="WrO8-fMBIuIMDRd06IfC-40" style="edgeStyle=orthogonalEdgeStyle;rounded=0;orthogonalLoop=1;jettySize=auto;html=1;exitX=0;exitY=0.5;exitDx=0;exitDy=0;entryX=1;entryY=0.5;entryDx=0;entryDy=0;" edge="1" parent="3" source="WrO8-fMBIuIMDRd06IfC-36" target="WrO8-fMBIuIMDRd06IfC-39">
          <mxGeometry relative="1" as="geometry">
            <mxPoint x="87.5" y="210" as="sourcePoint" />
            <mxPoint x="87.5" y="270" as="targetPoint" />
            <Array as="points">
              <mxPoint x="170" y="160" />
              <mxPoint x="170" y="160" />
            </Array>
          </mxGeometry>
        </mxCell>
        <mxCell id="WrO8-fMBIuIMDRd06IfC-44" value="Non" style="text;html=1;align=center;verticalAlign=middle;resizable=0;points=[];autosize=1;strokeColor=none;fillColor=none;" vertex="1" parent="3">
          <mxGeometry x="80" y="530" width="50" height="30" as="geometry" />
        </mxCell>
        <mxCell id="WrO8-fMBIuIMDRd06IfC-48" value="Oui" style="text;html=1;align=center;verticalAlign=middle;resizable=0;points=[];autosize=1;strokeColor=none;fillColor=none;" vertex="1" parent="3">
          <mxGeometry x="85" y="599" width="40" height="30" as="geometry" />
        </mxCell>
        <mxCell id="WrO8-fMBIuIMDRd06IfC-60" value="Oui" style="text;html=1;align=center;verticalAlign=middle;resizable=0;points=[];autosize=1;strokeColor=none;fillColor=none;" vertex="1" parent="3">
          <mxGeometry x="200" y="190" width="40" height="30" as="geometry" />
        </mxCell>
        <mxCell id="16" style="edgeStyle=orthogonalEdgeStyle;rounded=0;orthogonalLoop=1;jettySize=auto;html=1;exitX=0;exitY=0.5;entryX=1;entryY=0.5;" edge="1" parent="1" source="13" target="15">
          <mxGeometry relative="1" as="geometry" />
        </mxCell>
        <mxCell id="17" value="Non" style="edgeLabel;html=1;align=center;verticalAlign=middle;" edge="1" parent="16">
          <mxGeometry relative="0.5" as="geometry" />
        </mxCell>
        <mxCell id="WrO8-fMBIuIMDRd06IfC-22" value="&lt;font face=&quot;Verdana&quot;&gt;&lt;b style=&quot;font-size: 14px;&quot;&gt;Utilisateur&lt;/b&gt;&lt;/font&gt;" style="text;html=1;align=center;verticalAlign=middle;resizable=0;points=[];autosize=1;strokeColor=none;fillColor=none;fontSize=14;" vertex="1" parent="1">
          <mxGeometry x="115" y="-60" width="100" height="30" as="geometry" />
        </mxCell>
        <mxCell id="WrO8-fMBIuIMDRd06IfC-23" value="&lt;font size=&quot;1&quot;&gt;&lt;b style=&quot;font-size: 14px;&quot;&gt;Système&lt;/b&gt;&lt;/font&gt;" style="text;html=1;align=center;verticalAlign=middle;resizable=0;points=[];autosize=1;strokeColor=none;fillColor=none;fontFamily=Verdana;" vertex="1" parent="1">
          <mxGeometry x="505" y="-60" width="90" height="30" as="geometry" />
        </mxCell>
        <mxCell id="WrO8-fMBIuIMDRd06IfC-38" style="edgeStyle=orthogonalEdgeStyle;rounded=0;orthogonalLoop=1;jettySize=auto;html=1;entryX=0.5;entryY=0;entryDx=0;entryDy=0;exitX=1;exitY=0.5;exitDx=0;exitDy=0;" edge="1" parent="1" source="7" target="WrO8-fMBIuIMDRd06IfC-36">
          <mxGeometry relative="1" as="geometry">
            <mxPoint x="737.5" y="100" as="sourcePoint" />
            <mxPoint x="492.5" y="50" as="targetPoint" />
            <Array as="points">
              <mxPoint x="615" y="70" />
            </Array>
          </mxGeometry>
        </mxCell>
        <mxCell id="WrO8-fMBIuIMDRd06IfC-37" style="edgeStyle=orthogonalEdgeStyle;rounded=0;orthogonalLoop=1;jettySize=auto;html=1;entryX=0.5;entryY=1;entryDx=0;entryDy=0;exitX=0;exitY=0.5;exitDx=0;exitDy=0;" edge="1" parent="1" source="WrO8-fMBIuIMDRd06IfC-39" target="7">
          <mxGeometry relative="1" as="geometry">
            <mxPoint x="410" y="170" as="sourcePoint" />
            <mxPoint x="413.0000000000002" y="129.99999999999977" as="targetPoint" />
            <Array as="points">
              <mxPoint x="155" y="130" />
            </Array>
          </mxGeometry>
        </mxCell>
        <mxCell id="WrO8-fMBIuIMDRd06IfC-41" value="Non" style="text;html=1;align=center;verticalAlign=middle;resizable=0;points=[];autosize=1;strokeColor=none;fillColor=none;" vertex="1" parent="1">
          <mxGeometry x="485" y="108" width="50" height="30" as="geometry" />
        </mxCell>
        <mxCell id="12" style="edgeStyle=orthogonalEdgeStyle;rounded=0;orthogonalLoop=1;jettySize=auto;html=1;entryX=1;entryY=0.5;entryDx=0;entryDy=0;" edge="1" parent="1" source="WrO8-fMBIuIMDRd06IfC-36" target="WrO8-fMBIuIMDRd06IfC-34">
          <mxGeometry relative="1" as="geometry">
            <mxPoint x="610" y="170" as="targetPoint" />
            <Array as="points">
              <mxPoint x="602" y="190" />
            </Array>
          </mxGeometry>
        </mxCell>
        <mxCell id="WrO8-fMBIuIMDRd06IfC-47" style="edgeStyle=orthogonalEdgeStyle;rounded=0;orthogonalLoop=1;jettySize=auto;html=1;exitX=1;exitY=0.5;exitDx=0;exitDy=0;entryX=0;entryY=0.5;entryDx=0;entryDy=0;" edge="1" parent="1" source="WrO8-fMBIuIMDRd06IfC-42" target="11">
          <mxGeometry relative="1" as="geometry">
            <mxPoint x="420" y="320.47058823529414" as="targetPoint" />
            <mxPoint x="480" y="290" as="sourcePoint" />
            <Array as="points">
              <mxPoint x="492" y="445" />
            </Array>
          </mxGeometry>
        </mxCell>
        <mxCell id="WrO8-fMBIuIMDRd06IfC-49" style="edgeStyle=orthogonalEdgeStyle;rounded=0;orthogonalLoop=1;jettySize=auto;html=1;entryX=0.5;entryY=0;entryDx=0;entryDy=0;exitX=0.5;exitY=1;exitDx=0;exitDy=0;" edge="1" parent="1" source="13" target="18">
          <mxGeometry relative="1" as="geometry">
            <mxPoint x="430" y="610" as="sourcePoint" />
            <mxPoint x="430" y="710" as="targetPoint" />
            <Array as="points">
              <mxPoint x="540" y="560" />
              <mxPoint x="540" y="600" />
              <mxPoint x="150" y="600" />
            </Array>
          </mxGeometry>
        </mxCell>
      </root>
    </mxGraphModel>
  </diagram>
</mxfile>
